<?xml version="1.0" encoding="utf-8"?>
<!-- Generator: Adobe Illustrator 21.0.0, SVG Export Plug-In . SVG Version: 6.00 Build 0)  -->
<svg version="1.1"
	 id="svg3385" inkscape:version="0.91 r13725" sodipodi:docname="fronius-logo.svg" xmlns:cc="http://creativecommons.org/ns#" xmlns:dc="http://purl.org/dc/elements/1.1/" xmlns:inkscape="http://www.inkscape.org/namespaces/inkscape" xmlns:rdf="http://www.w3.org/1999/02/22-rdf-syntax-ns#" xmlns:sodipodi="http://sodipodi.sourceforge.net/DTD/sodipodi-0.dtd" xmlns:svg="http://www.w3.org/2000/svg"
	 xmlns="http://www.w3.org/2000/svg" xmlns:xlink="http://www.w3.org/1999/xlink" x="0px" y="0px" viewBox="0 0 425.2 117.4"
	 style="enable-background:new 0 0 425.2 117.4;" xml:space="preserve">
<style type="text/css">
	.st0{fill:#E2001A;}
	.st1{fill:#FFFFFF;}
	.st2{fill:#ED1C24;}
</style>
<sodipodi:namedview  bordercolor="#666666" borderopacity="1.0" fit-margin-bottom="0" fit-margin-left="0" fit-margin-right="0" fit-margin-top="0" id="base" inkscape:current-layer="layer1" inkscape:cx="269.3333" inkscape:cy="70.502285" inkscape:document-units="px" inkscape:pageopacity="0.0" inkscape:pageshadow="2" inkscape:window-height="988" inkscape:window-maximized="1" inkscape:window-width="1680" inkscape:window-x="-8" inkscape:window-y="-8" inkscape:zoom="0.35" pagecolor="#ffffff" showgrid="false">
	</sodipodi:namedview>
<g id="layer1" transform="translate(-105.6667,-456.14574)" inkscape:groupmode="layer" inkscape:label="Ebene 1">
	<g id="g3401" transform="matrix(1.25,0,0,-1.25,105.6667,602.86449)" inkscape:label="ink_ext_XXXXXX">
		<g id="g3403" transform="scale(0.1,0.1)">
			<path id="path3405" inkscape:connector-curvature="0" class="st0" d="M1700.8,1173.8C761.8,1173.8,0,963.1,0,703.7
				c0-258.3,761.8-468.9,1700.8-468.9c939.2,0,1701,210.6,1701,468.9C3401.8,963.1,2640,1173.8,1700.8,1173.8"/>
			<path id="path3407" inkscape:connector-curvature="0" class="st1" d="M1439.6,535.6h-258.3c-26.2,0-47.9,21.7-47.9,47.9
				c0,7.3,0.9,14.5,3.5,19.9l77.9,166.2v0.2c7.2,18,18,31.4,32.5,41.4c15.4,9.1,32.5,13.7,54.2,14.5H1558
				c27.1,0,48.8-21.6,48.8-48.8c0-7.2-1.8-14.5-5.4-20.8h0.9l-76.8-165.3C1509.2,557.3,1476.7,536.7,1439.6,535.6"/>
			<path id="path3409" inkscape:connector-curvature="0" class="st2" d="M1482.1,749.9h-164.4c-4.6,0-9.1-1.7-11.7-3.7
				c-2.8-1.8-5.4-4.6-7.4-8L1247.2,627c-1.9-4.6-1.9-8.1,0-10.9c1.8-2.6,5.4-3.5,10-4.6h165.3c7.2,0,13.7,4.6,17.1,12l52.5,111
				c0.9,0.9,0.9,2.8,0.9,4.6C1493,744.5,1488.4,749.9,1482.1,749.9"/>
			<path id="path3411" inkscape:connector-curvature="0" class="st1" d="M2190.8,935.1h99.4l-35.1-75.9h-100.4L2190.8,935.1"/>
			<path id="path3413" inkscape:connector-curvature="0" class="st1" d="M615.4,735.4l-93.9-199.8h-234l177,381.5
				c16.3,34.3,50.8,56,87.9,56h398.5l-36.2-75.9H580.2c-14.5-0.9-29.1-9.1-35.4-23.4L423,611.5h35.2l74.2,159.2
				c16.3,33.4,49.7,55.1,87.6,56h262l-35.1-76H639C629,750.7,619.9,744.5,615.4,735.4"/>
			<path id="path3415" inkscape:connector-curvature="0" class="st1" d="M970.6,747.1c-3.7-2.6-7.4-6.3-9.1-10.8l-93.1-200.6H768.1
				l109.5,235.1h0.9c16.3,34.2,50.5,56,88.5,56h252.3l-36.2-76h-199C978.7,750.7,974.1,749.1,970.6,747.1"/>
			<path id="path3417" inkscape:connector-curvature="0" class="st1" d="M1849.1,535.6l93,198c0,1.7,0,3.7,0,4.6
				c0,6.3-4.6,10.9-10.8,10.9h-177.2l-99.4-213.4h-99.3L1689.9,825h316.5c27.1,0,49.7-21.7,49.7-47.9c0-7.2-1.7-14.5-4.6-20.8
				l-103-220.6L1849.1,535.6"/>
			<path id="path3419" inkscape:connector-curvature="0" class="st1" d="M2004.4,535.6L2140,826.7h99.6L2104,535.6H2004.4"/>
			<path id="path3421" inkscape:connector-curvature="0" class="st1" d="M2584.7,591.8c-16.3-34.5-48.8-55.1-85.7-56.2h-261.4
				c-27.1,0-48.8,21.7-48.8,48.8c0,7.4,1.1,13.7,3.7,20l78.7,168.1l26,55.9h98.7l-91.3-200.6c-1.7-4.3-1.7-8,0-10.8
				c0.9-1.7,4.5-4.3,9.1-4.3h167c8.3,0,14.6,4.3,18.2,11.7l93.9,204.1h100.4l-108.5-236.6L2584.7,591.8"/>
			<path id="path3423" inkscape:connector-curvature="0" class="st1" d="M3099.8,751.7h-282c-5.4,0-8.9-0.9-12.5-2.6
				c-3.7-2-5.4-5.4-7.2-9.1l-10-20.8h220.6c27.1,0,48.8-21.7,48.8-48.8c0-8.1-1.1-13.5-4.5-20.8l-5.4-11.7l-21.7-45.1
				c-15.4-34.3-48.8-57.1-86.8-57.1H2602l36,77h284.8c7.2,0,13.4,4.3,17.1,11.7l10,20.8h-220.6c-27.1,0-48.8,21.7-48.8,48.6
				c0,7.4,1.7,14.6,5.4,21.7v0.2l27.1,57.7c7.2,18.2,18,31.7,32.6,40.7c15.4,8.9,33.4,13.5,55.9,14.3H3136L3099.8,751.7"/>
		</g>
	</g>
</g>
</svg>
